<svg id="Capa_2" enable-background="new 0 0 453.54 453.54" viewBox="0 0 453.54 453.54" xmlns="http://www.w3.org/2000/svg"><g><g><path d="m446.646 382.094h-439.752c-3.808 0-6.896-3.087-6.896-6.895v-296.859c0-3.808 3.088-6.895 6.896-6.895h439.753c3.808 0 6.896 3.087 6.896 6.895v296.86c-.001 3.807-3.089 6.894-6.897 6.894zm-432.858-13.789h425.964v-283.07h-425.964z" fill="#1d66ad"></path></g><g><path d="m227.924 274.145c-1.572 0-3.145-.535-4.426-1.608l-188.971-158.209c-2.921-2.445-3.307-6.793-.862-9.713 2.444-2.921 6.792-3.304 9.713-.86l184.488 154.455 184.533-158.542c2.889-2.482 7.24-2.151 9.723.737 2.481 2.888 2.151 7.241-.737 9.723l-188.969 162.352c-1.291 1.109-2.892 1.665-4.492 1.665z" fill="#1d66ad"></path></g><g><path d="m29.571 360.282c-1.639 0-3.281-.58-4.598-1.758-2.836-2.54-3.079-6.899-.538-9.736.323-.36 32.636-36.451 64.764-71.897 18.88-20.83 34.009-37.369 44.96-49.158 6.532-7.029 11.644-12.438 15.197-16.079 1.994-2.043 3.508-3.542 4.624-4.581 3.935-3.655 7.545-4.238 10.738-1.726 2.992 2.355 3.51 6.69 1.154 9.683-.606.77-1.343 1.376-2.154 1.812-8.769 7.622-81.463 88.033-129.009 141.145-1.36 1.52-3.246 2.295-5.138 2.295zm126.626-144.092c1.047.82 2.177 1.247 3.264 1.399-1.154-.166-2.28-.628-3.264-1.399z" fill="#1d66ad"></path></g><g><path d="m431.154 360.282c-1.853 0-3.699-.743-5.058-2.209l-134.522-145.168c-2.59-2.792-2.423-7.156.369-9.744 2.793-2.59 7.155-2.422 9.744.371l134.523 145.169c2.589 2.792 2.422 7.156-.37 9.744-1.326 1.229-3.008 1.837-4.686 1.837z" fill="#1d66ad"></path></g><g><g><path d="m422.138 247.585c-3.809 0-6.896-3.087-6.896-6.895v-109.229c0-3.808 3.087-6.895 6.896-6.895 3.808 0 6.895 3.087 6.895 6.895v109.229c-.001 3.808-3.088 6.895-6.895 6.895z" fill="#1d66ad"></path></g><g><path d="m422.138 296.189c-3.809 0-6.896-3.087-6.896-6.895v-27.484c0-3.808 3.087-6.895 6.896-6.895 3.808 0 6.895 3.087 6.895 6.895v27.484c-.001 3.809-3.088 6.895-6.895 6.895z" fill="#1d66ad"></path></g></g><g><g><path d="m166.766 360.282h-109.226c-3.809 0-6.896-3.087-6.896-6.895s3.087-6.895 6.896-6.895h109.226c3.808 0 6.895 3.087 6.895 6.895s-3.088 6.895-6.895 6.895z" fill="#1d66ad"></path></g><g><path d="m215.373 360.282h-27.481c-3.809 0-6.896-3.087-6.896-6.895s3.087-6.895 6.896-6.895h27.481c3.808 0 6.896 3.087 6.896 6.895s-3.088 6.895-6.896 6.895z" fill="#1d66ad"></path></g></g></g></svg>